<?xml version="1.0" encoding="UTF-8"?>
<svg width="179px" height="40px" viewBox="0 0 179 40" version="1.1" xmlns="http://www.w3.org/2000/svg" xmlns:xlink="http://www.w3.org/1999/xlink">
    <!-- Generator: Sketch 52.1 (67048) - http://www.bohemiancoding.com/sketch -->
    <title>logo/jmto/white</title>
    <desc>Created with Sketch.</desc>
    <defs>
        <polygon id="path-1" points="0 0.076137931 39.9238345 0.076137931 39.9238345 39.9999724 0 39.9999724"></polygon>
        <polygon id="path-3" points="0.0328600673 0.167087892 5.67301818 0.167087892 5.67301818 7.04327416 0.0328600673 7.04327416"></polygon>
    </defs>
    <g id="logo/jmto/white" stroke="none" stroke-width="1" fill="none" fill-rule="evenodd">
        <g id="Group-41" transform="translate(-0.000000, 0.000000)">
            <path d="M57.8416638,4.37095067 L53.5189772,4.37095067 L53.5189772,16.2407125 C53.5189772,16.7673424 53.0838056,17.1975319 52.5516857,17.1975319 L49.4545455,17.1975319 L49.4545455,21.0909091 L53.9062225,21.0909091 C56.0708521,21.0909091 57.8416638,19.3384559 57.8416638,17.1975319 L57.8416638,4.37095067 Z M76.7531437,4.37095067 C79.0314274,4.37095067 81.3105326,4.37176337 83.5904595,4.37176337 L83.5904595,8.16030223 L81.8210172,8.16030223 L77.1436753,8.16030223 L76.7531437,8.21366956 C76.1509144,8.38216947 75.7086222,8.93020051 75.7086222,9.57954822 C75.7086222,10.3632624 76.3516575,10.9996069 77.1436753,10.9996069 L78.9736418,10.9996069 C80.7162454,10.9996069 81.4923791,10.9725169 82.6730115,12.0450107 C83.7216409,12.9974956 84.3797387,14.364187 84.3797387,15.8814988 C84.3797387,18.7560205 82.0195694,21.0909091 79.1138608,21.0909091 C76.8350294,21.0909091 74.5556502,21.0892837 72.2768188,21.0892837 L72.2768188,17.3015575 L74.0459873,17.3015575 L78.7230553,17.3015575 L79.1138608,17.2479193 C79.7158162,17.0791485 80.1578345,16.5311174 80.1578345,15.8814988 C80.1578345,15.0983265 79.5147993,14.461982 78.7230553,14.461982 L76.5395289,14.461982 C75.0885917,14.461982 73.9865586,14.269101 72.919854,13.1491997 C72.0319834,12.2164905 71.4869919,10.9605973 71.4869919,9.57954822 C71.4869919,6.70529742 73.8474351,4.37095067 76.7531437,4.37095067 Z M84.2890894,21.0909091 L88.2886151,21.0909091 L91.0201455,9.73531581 L93.7519498,21.0909091 L97.7514756,21.0909091 L95.0317214,9.78434874 C94.7647029,8.67149085 94.5237016,7.67241103 94.2624343,6.58447595 C93.7711203,5.29119854 92.5096977,4.37095067 91.0311001,4.37095067 C89.4769157,4.37095067 88.1623633,5.387639 87.7299303,6.78548387 C87.4703062,7.86420835 87.2282095,8.87195697 86.9562615,10.0029652 L84.2890894,21.0909091 Z M121.475861,21.0909091 L125.476208,21.0909091 L128.207191,9.73531581 L130.938173,21.0909091 L134.938247,21.0909091 L132.218493,9.78434874 C131.950926,8.67149085 131.71102,7.67241103 131.448658,6.58447595 C130.957892,5.29119854 129.695921,4.37095067 128.217597,4.37095067 C126.663413,4.37095067 125.348861,5.387639 124.916701,6.78548387 C124.657351,7.86420835 124.414981,8.87195697 124.142759,10.0029652 L121.475861,21.0909091 Z M98.2931807,21.0909091 L102.293254,21.0909091 L105.024237,9.73531581 L106.633742,16.42655 C107.018796,18.0281118 107.576659,19.7117563 109.73143,19.7117563 C112.121998,19.7117563 112.51965,17.7130549 112.933461,15.9931097 L114.438623,9.73531581 L117.16988,21.0909091 L121.169679,21.0909091 L118.450473,9.78434874 C118.182633,8.67149085 117.941905,7.67241103 117.680364,6.58447595 C117.189872,5.29119854 115.928175,4.37095067 114.449304,4.37095067 C112.894846,4.37095067 111.580293,5.387639 111.148134,6.78548387 C110.888784,7.86420835 110.646413,8.87195697 110.374465,10.0029652 L109.731978,12.676208 L109.036087,9.78434874 C108.768247,8.67149085 108.527519,7.67241103 108.266252,6.58447595 C107.774938,5.29119854 106.513789,4.37095067 105.034644,4.37095067 C103.480733,4.37095067 102.165907,5.387639 101.733748,6.78548387 C101.474398,7.86420835 101.232027,8.87195697 100.960353,10.0029652 L98.2931807,21.0909091 Z M164.720254,21.0909091 L168.719232,21.0909091 L171.451036,9.73531581 L174.182292,21.0909091 L178.181818,21.0909091 L175.462064,9.78434874 C175.195046,8.67149085 174.954318,7.67241103 174.692777,6.58447595 C174.201737,5.29119854 172.94004,4.37095067 171.461717,4.37095067 C169.907258,4.37095067 168.592158,5.387639 168.160273,6.78548387 C167.900649,7.86420835 167.658278,8.87195697 167.386604,10.0029652 L164.720254,21.0909091 Z M138.782217,4.37095067 L135.66262,4.37095067 L135.66262,21.0909091 L139.985306,21.0909091 L139.985306,8.2697459 L143.159951,8.2697459 C144.319495,8.2697459 145.259948,9.20055888 145.259948,10.3475502 C145.259948,11.4939997 144.319495,12.4250836 143.159951,12.4250836 L140.680924,12.4250836 L145.146842,21.0909091 L149.378057,21.0909091 L146.288859,15.0953466 C148.028724,14.1038519 149.201688,12.2443932 149.201688,10.1159305 C149.201688,6.94450227 146.59997,4.37095067 143.393831,4.37095067 L138.782217,4.37095067 Z M158.523782,4.36363636 C158.745887,4.36363636 158.964979,4.37176337 159.182701,4.38883008 L163.989582,4.38232848 L163.989582,8.26053529 C162.047878,8.26053529 160.272411,8.266766 158.523782,8.266766 C156.033527,8.266766 154.014593,10.2641129 154.014593,12.7271373 C154.014593,15.1898907 156.033527,17.1872377 158.523782,17.1872377 C158.918696,17.1872377 159.301833,17.1368502 159.666895,17.0420352 L159.666895,12.7157595 L163.989582,12.7157595 L163.989582,21.0909091 L159.666895,21.0909091 L159.666895,21.0139734 C159.293343,21.06409 158.911301,21.0909091 158.523782,21.0909091 C153.85493,21.0909091 150.068471,17.3457143 150.068471,12.7271373 C150.068471,8.1082894 153.85493,4.36363636 158.523782,4.36363636 Z M58.1645508,21.0909091 L62.1643504,21.0909091 L64.8950592,9.73531581 L67.6265896,21.0909091 L71.6258415,21.0909091 L68.906635,9.78434874 C68.6396166,8.67149085 68.399163,7.67241103 68.137348,6.58447595 C67.646034,5.29119854 66.3846114,4.37095067 64.9060138,4.37095067 C63.3518294,4.37095067 62.037277,5.387639 61.604844,6.78548387 C61.3454938,7.86420835 61.1031232,8.87195697 60.8311751,10.0029652 L58.1645508,21.0909091 Z" id="Fill-1" fill="#FFFFFF"></path>
            <g id="Group-5">
                <mask id="mask-2" fill="white">
                    <use xlink:href="#path-1"></use>
                </mask>
                <g id="Clip-4"></g>
                <path d="M19.9619034,0.0761103448 C30.9848,0.0761103448 39.9238345,9.01486897 39.9238345,20.0380414 C39.9238345,31.0606621 30.9848,39.9999724 19.9619034,39.9999724 C8.93928276,39.9999724 -2.75862069e-05,31.0606621 -2.75862069e-05,20.0380414 C-2.75862069e-05,9.01486897 8.93928276,0.0761103448 19.9619034,0.0761103448" id="Fill-3" fill="#FFFFFF" mask="url(#mask-2)"></path>
            </g>
            <path d="M38.468254,12.6706204 C38.7891069,13.4808066 39.0584581,14.3172079 39.2727273,15.1754093 C37.333013,14.6022632 35.4291021,14.2231093 33.5472241,13.9667527 C33.4893879,13.0812325 33.4067648,12.2304818 33.3023844,11.3960121 C35.0787803,11.7219078 36.8485665,12.1407984 38.468254,12.6706204 M27.9872424,1.76401303 C28.9335519,2.18317953 29.8418549,2.67298896 30.7041643,3.22847426 C31.3665259,5.38087628 31.8950381,7.5197568 32.29576,9.75383972 C32.7576229,12.3270639 33.0429479,15.085174 33.2046137,17.8413523 C33.3324041,20.0169341 33.1263972,22.1938955 32.4761537,24.1743814 C30.7487807,29.4364524 26.3188072,33.4545455 19.9392047,33.4545455 C12.5433385,33.4545455 6.54545455,27.4449286 6.54545455,20.0345948 C6.54545455,12.6245369 12.5433385,6.86658557 19.9392047,6.86658557 C21.9268403,6.84671724 23.8340562,6.91377284 25.752013,7.09341563 C25.8153573,8.08352056 25.8836591,9.0697622 25.9459018,10.0510368 C24.9076052,9.95335083 23.8734398,9.85456109 22.8288088,9.7988194 C21.4583675,9.72596887 19.9328703,9.63932089 18.5607765,9.80985736 C13.3910512,10.4522666 9.39787827,14.6709745 9.39787827,20.0345948 C9.39787827,25.8667764 14.3891378,30.596266 19.9392047,30.5968178 C24.7781624,30.5970938 28.8142993,27.3373085 30.0335404,22.8901148 C30.482459,21.2534614 30.4634557,19.6206713 30.3554949,17.9150307 C30.2632325,16.4464303 30.1839144,14.998526 30.1012913,13.7283328 C29.9936059,12.0624289 29.7936581,10.3551325 29.5050281,8.60451223 C29.1401096,6.39360902 28.632804,4.11454642 27.9872424,1.76401303 M25.0373234,0.727272727 C25.8698886,0.94775596 26.6809717,1.22039355 27.4667171,1.54242601 C28.2739444,4.27294113 28.8688305,6.93805635 29.2541294,9.75383972 C29.6920317,12.9518124 29.8448844,16.4348404 29.830563,19.8455698 C29.8300122,22.5603558 29.1211063,24.8819145 27.2794381,26.8670915 C25.449888,28.8398507 22.8381728,30.0747224 19.9392047,30.0747224 C14.4062133,30.0747224 9.91895442,25.5784098 9.91895442,20.0348708 C9.91895442,15.5220012 12.8925586,12.0378694 16.9826759,10.8979242 C19.8516243,10.0985 23.0249009,10.4511628 25.9731674,10.6818561 C26.0332068,11.6554041 26.0849839,12.4388233 26.1180332,13.402989 C23.5418459,13.2617031 20.0722279,12.9609187 17.5244078,13.6974265 C14.598725,14.5426583 12.5802434,16.7764652 12.5802434,20.0348708 C12.5802434,24.1056701 15.8758022,27.4079515 19.9392047,27.4079515 C21.6464727,27.4079515 23.2185143,26.8248713 24.4674997,25.8466322 C26.8038046,24.0162626 27.028264,20.9220467 26.9668475,17.9150307 C26.9368278,16.4464303 26.9189261,14.998526 26.8908343,13.7283328 C26.8536539,12.0624289 26.7266898,10.3551325 26.5121452,8.60451223 C26.2020333,6.07047277 25.7082228,3.44647395 25.0373234,0.727272727 M38.2559127,12.1579072 C36.561589,11.6253257 34.8934292,11.2279592 33.2412433,10.926071 C33.1217153,10.0405507 32.9793282,9.16993168 32.8179378,8.29103419 C34.1583594,8.62658814 35.5084203,9.0297496 36.874455,9.50769323 C37.3980099,10.3512693 37.860699,11.2367895 38.2559127,12.1579072" id="Fill-6" fill="#184887"></path>
            <path d="M53.8474165,25.5065414 C55.1809529,25.5065414 56.5147561,25.5151968 57.8480257,25.4998405 C58.1212432,25.49649 58.1970184,25.5805311 58.1794087,25.8563869 C58.1567295,26.2134918 58.1591308,26.5745056 58.1791418,26.9321689 C58.193283,27.1787081 58.1191087,27.2490681 57.8829783,27.2446008 C57.0833367,27.2295236 56.2826279,27.2532561 55.4829863,27.2306404 C55.1961613,27.2225435 55.1273233,27.3037925 55.1291909,27.6014264 C55.141998,29.8875678 55.126256,32.1734299 55.1460002,34.459292 C55.1494688,34.8420839 55.0336715,34.918028 54.703089,34.9023925 C54.1323738,34.8758679 53.5581901,34.8649788 52.9893426,34.9057429 C52.6013951,34.9336636 52.5456309,34.7881971 52.5482991,34.4224368 C52.5653752,32.1630993 52.5499,29.9037617 52.5648415,27.6444242 C52.5669761,27.3160776 52.4954699,27.2186346 52.1731586,27.2298028 C51.3865909,27.2568858 50.5984223,27.2270108 49.811321,27.2451592 C49.5551796,27.2510225 49.4831398,27.1667022 49.5034177,26.9115076 C49.5397044,26.4527716 49.3230514,25.8360049 49.5895986,25.5771806 C49.8243949,25.3493483 50.4079171,25.5090543 50.8374877,25.5076582 C51.8407083,25.5040286 52.8441958,25.5065414 53.8474165,25.5065414" id="Fill-8" fill="#FFFFFF"></path>
            <path d="M158.042634,31.403504 C158.042634,30.8646294 158.030302,30.3252278 158.048389,29.7868802 C158.05661,29.5428715 157.985087,29.4675081 157.724753,29.4711972 C157.090909,29.48042 157.090909,29.4667175 157.090909,28.8696076 L157.090909,28.7945077 C157.090909,28.1043793 157.090635,28.093312 157.797098,28.0751299 C158.020163,28.0693327 158.050033,27.9860641 158.046196,27.8060879 C158.036331,27.3549615 158.054418,26.9033082 158.037701,26.4527089 C158.029754,26.2337335 158.108403,26.1778697 158.326535,26.1823493 C158.951609,26.1952612 159.578054,26.1965788 160.203129,26.1820858 C160.434689,26.1765521 160.487304,26.2563952 160.480453,26.4619317 C160.466477,26.9001461 160.488948,27.3394145 160.471136,27.7773654 C160.461819,28.0018746 160.516626,28.0827716 160.76819,28.0748664 C161.367231,28.0558938 161.967369,28.077238 162.566684,28.064326 C162.790571,28.0595829 162.90183,28.0959471 162.881551,28.34628 C162.852777,28.7062324 162.999112,29.1760678 162.81222,29.4005769 C162.614641,29.638525 162.105483,29.450907 161.733891,29.4772579 C161.323386,29.5065073 160.773123,29.3057139 160.541015,29.559209 C160.338229,29.7808195 160.480179,30.2978229 160.477439,30.6843897 C160.473328,31.2230008 160.499635,31.7631929 160.471958,32.30075 C160.415781,33.3993163 161.199248,33.5734954 161.994498,33.4612408 C162.096166,33.4470113 162.197285,33.4248766 162.29676,33.3993163 C162.876892,33.2491166 162.876618,33.248326 162.876618,33.8082813 C162.876618,34.7089529 162.877166,34.7123785 161.908725,34.8449232 C161.116763,34.9532251 160.327815,34.9274013 159.549281,34.74479 C158.623589,34.5276591 158.098263,33.9139482 158.059898,32.9821826 C158.038523,32.4567469 158.056336,31.9297302 158.056336,31.403504 L158.042634,31.403504 Z" id="Fill-10" fill="#FFFFFF"></path>
            <path d="M70.539283,30.1885229 C70.539283,31.6503746 70.5324368,33.111957 70.5453958,34.5735393 C70.5478409,34.8495891 70.4744881,34.9174569 70.2336463,34.9083001 C69.6986598,34.8881014 69.1626953,34.8940263 68.6274643,34.905607 C68.4413926,34.9096467 68.3631496,34.8700571 68.3636386,34.6373674 C68.3704849,31.6624938 68.3697514,28.6878896 68.3643722,25.7132853 C68.3641277,25.5067193 68.4254995,25.4536639 68.6047249,25.457165 C69.1631843,25.4684763 69.7223772,25.4746706 70.2805921,25.4550105 C70.5111645,25.446931 70.5444177,25.543885 70.5434397,25.7649942 C70.5353709,27.2395037 70.539283,28.7140133 70.539283,30.1885229" id="Fill-12" fill="#FFFFFF"></path>
            <path d="M74.9034146,30.191562 C74.9034146,31.6507248 74.8970595,33.1101569 74.9090364,34.5693197 C74.9112363,34.8386374 74.8474407,34.9175474 74.601791,34.9083906 C74.0562286,34.8873838 73.5096885,34.8935781 72.9636372,34.9056974 C72.7798277,34.9097372 72.7275202,34.8456396 72.728009,34.6455366 C72.7328976,31.6757714 72.733142,28.7057368 72.7272757,25.7359715 C72.7267869,25.5172856 72.7856939,25.4518414 72.9822137,25.4566891 C73.5277761,25.4696164 74.0743162,25.4733868 74.620123,25.4550732 C74.8503738,25.447263 74.9102586,25.5248265 74.9085476,25.7752919 C74.8980372,27.2471126 74.9034146,28.719472 74.9034146,30.191562" id="Fill-14" fill="#FFFFFF"></path>
            <g id="Group-18" transform="translate(172.363636, 27.636364)">
                <mask id="mask-4" fill="white">
                    <use xlink:href="#path-3"></use>
                </mask>
                <g id="Clip-17"></g>
                <path d="M2.65512727,1.21672727 C3.33469091,0.75423569 3.95461818,0.362855219 4.72,0.251609428 C4.74676364,0.247569024 4.7712,0.231676768 4.79796364,0.226828283 C5.56101818,0.0832592593 5.6672,0.161912458 5.6672,0.871138047 C5.66690909,1.22965657 5.65294545,1.58898316 5.67214545,1.9466936 C5.68349091,2.16191246 5.59330909,2.22251852 5.38734545,2.18184512 C4.5696,2.02103704 3.77629091,2.12797306 2.98414545,2.33699663 C2.72349091,2.4056835 2.64785455,2.52177778 2.6496,2.76312458 C2.66123636,4.08191246 2.64901818,5.40123906 2.66094545,6.72002694 C2.66298182,6.96595286 2.59956364,7.05107071 2.31970909,7.04272054 C1.65614545,7.02305724 0.991709091,7.02655892 0.328145455,7.0416431 C0.0852363636,7.04729966 0.0343272727,6.96918519 0.0349090909,6.75935354 C0.0427636364,4.67208081 0.0445090909,2.58453872 0.0328727273,0.497265993 C0.0317090909,0.252148148 0.110545455,0.198814815 0.358981818,0.205010101 C1.00858182,0.220632997 1.65963636,0.226828283 2.30865455,0.202855219 C2.62138182,0.191272727 2.68567273,0.301710438 2.65949091,0.554909091 C2.63854545,0.751003367 2.65512727,0.950329966 2.65512727,1.21672727" id="Fill-16" fill="#FFFFFF" mask="url(#mask-4)"></path>
            </g>
            <path d="M145.634579,28.7473943 C146.242262,28.2478674 146.818513,27.8427145 147.515777,27.7098495 C147.552186,27.7027215 147.587547,27.6873252 147.624217,27.6816228 C148.3131,27.5718523 148.357628,27.6134796 148.358676,28.3621997 C148.358938,28.7416919 148.346889,29.1217543 148.362867,29.5006763 C148.373606,29.7569975 148.271714,29.8026164 148.072122,29.7567124 C147.336092,29.5882076 146.619968,29.7108083 145.90987,29.9343409 C145.70923,29.997352 145.624887,30.1014201 145.627769,30.3534645 C145.642175,31.749973 145.62803,33.1464815 145.640341,34.5427048 C145.642699,34.8138522 145.597908,34.9199161 145.322093,34.9082262 C144.724888,34.883421 144.126372,34.8934001 143.528642,34.9050899 C143.33717,34.9087965 143.272472,34.8517729 143.272996,34.6336575 C143.280068,32.4103065 143.280592,30.1866705 143.272734,27.9633195 C143.271948,27.7295226 143.337693,27.6656562 143.547239,27.6705032 C144.15728,27.6841889 144.767844,27.6861847 145.377885,27.6696478 C145.601575,27.6633752 145.652914,27.7526172 145.638246,27.9721582 C145.62253,28.2008229 145.634579,28.4320537 145.634579,28.7473943" id="Fill-19" fill="#FFFFFF"></path>
            <path d="M79.4151862,28.7494081 C80.0318164,28.2802762 80.5838547,27.847319 81.2757986,27.7291103 C81.2878278,27.7271164 81.2990726,27.7191409 81.3111018,27.7162925 C82.0616229,27.531716 82.1745934,27.6259981 82.1745934,28.4360838 C82.1745934,28.7750437 82.1581185,29.1154278 82.179562,29.4526787 C82.1973443,29.7286889 82.1115705,29.822971 81.8668012,29.7645788 C81.1178492,29.5856991 80.3916481,29.7258405 79.6701541,29.9491552 C79.4774245,30.0086869 79.4065565,30.1109445 79.4086485,30.3459377 C79.4219853,31.7425095 79.4049874,33.1393661 79.4230313,34.5353682 C79.4272154,34.8498319 79.3432721,34.9193329 79.0715678,34.9079393 C78.5122073,34.8842975 77.9510162,34.890564 77.3913942,34.9059454 C77.172514,34.911927 77.0896168,34.8617952 77.0909243,34.5980331 C77.1008615,32.3879575 77.0998155,30.177882 77.0919703,27.9678064 C77.0909243,27.7285406 77.1651919,27.6729967 77.3704738,27.6775542 C77.9674911,27.6909417 78.5655544,27.6940749 79.1625717,27.67613 C79.3921737,27.6692938 79.4319225,27.7692728 79.4185857,27.9834726 C79.4039414,28.2119145 79.4151862,28.4423503 79.4151862,28.7494081" id="Fill-21" fill="#FFFFFF"></path>
            <path d="M130.438185,32.0051167 C130.278791,32.6547782 129.753745,33.1034233 129.037594,33.1603647 C128.588597,33.1961186 128.055974,33.2959646 127.719507,33.0303264 C127.466665,32.8308992 127.663382,32.363715 127.640371,32.0167698 C127.625779,31.7911231 127.637846,31.5641521 127.637846,31.3377107 C127.637846,30.859668 127.65328,30.3813604 127.631111,29.9041121 C127.620447,29.6723739 127.723436,29.5767654 127.929413,29.4912209 C128.367747,29.3084788 128.822076,29.2451812 129.292119,29.291264 C129.892653,29.3505889 130.311343,29.7152786 130.441833,30.2891948 C130.571481,30.8599328 130.578496,31.4341138 130.438185,32.0051167 M133.018235,30.2423175 C132.638832,27.7400748 130.43145,27.1754281 128.63939,27.9739317 C128.31078,28.1203902 128.007426,28.3169042 127.695935,28.4885229 C127.61736,28.4151612 127.634759,28.33253 127.648229,28.2655245 C127.716981,27.9201684 127.553939,27.8476013 127.214946,27.8642864 C126.655664,27.8918302 126.093295,27.8918302 125.534013,27.8642864 C125.202036,27.8478661 125.114481,27.93447 125.116165,28.2533417 C125.130758,31.0622734 125.124865,33.871205 125.123181,36.6804015 C125.123181,36.8170608 125.102134,36.9539849 125.090909,37.0909091 L127.656086,37.0909091 L127.656086,34.2716486 C127.846068,34.3473938 127.999569,34.4120157 128.155315,34.4705461 C129.904159,35.1244451 131.702392,34.5878719 132.574008,33.1251405 C133.109999,32.2254666 133.170894,31.2487233 133.018235,30.2423175" id="Fill-23" fill="#FFFFFF"></path>
            <path d="M120.483961,32.1919366 C119.611544,33.6123392 117.431598,33.6005137 116.593727,32.1607603 C116.172049,31.4367178 116.096103,30.6465601 116.161631,29.8330202 C116.196725,29.4008523 116.246076,28.9740596 116.41716,28.5666178 C116.775229,27.7141075 117.384166,27.1902921 118.349528,27.1365398 C119.38782,27.0792937 120.163728,27.4724912 120.616661,28.4220243 C120.88864,28.9912604 120.928944,29.5983917 120.969247,30.1861723 C120.935798,30.9010769 120.861497,31.5772799 120.483961,32.1919366 M120.679995,25.7935405 C119.433881,25.3836798 118.152672,25.3527722 116.878318,25.66131 C115.512664,25.9918862 114.469986,26.7476425 113.87887,28.0272142 C113.507092,28.8324225 113.419905,29.6900393 113.465692,30.5635129 C113.559185,32.3569559 114.490823,33.8434737 116.257043,34.5100013 C117.402536,34.9421692 118.591897,34.9983403 119.783725,34.7981133 C120.992003,34.5949298 122.0451,34.0829399 122.784544,33.0753544 C123.414044,32.2174689 123.644897,31.2432098 123.636124,30.202298 C123.641059,28.0196889 122.586591,26.4208289 120.679995,25.7935405" id="Fill-25" fill="#FFFFFF"></path>
            <path d="M105.550153,32.9141356 C105.118546,33.126154 104.665232,33.2099491 104.189929,33.1562415 C103.621032,33.092411 103.203238,32.7277057 103.054389,32.1723525 C102.906667,31.6214984 102.903848,31.0532103 102.98814,30.5023562 C103.164898,29.3486275 104.072372,28.7674047 105.253582,28.9971382 C105.849543,29.1129891 105.849543,29.1129891 105.849543,29.7335787 L105.849543,30.9770075 C105.849543,31.4581261 105.833192,31.9403695 105.856591,32.4206446 C105.868995,32.6779348 105.762432,32.8098136 105.550153,32.9141356 M108.36194,25.0073121 C108.362222,24.8085097 108.320499,24.7230275 108.09807,24.7278077 C107.441216,24.7418673 106.783798,24.7432733 106.126944,24.7275265 C105.887319,24.7219027 105.836293,24.8093533 105.840522,25.0281202 C105.852926,25.6697992 105.852362,26.3120406 105.841368,26.954282 C105.837139,27.2149465 105.9671,27.5698101 105.779347,27.7104059 C105.625141,27.8262568 105.32998,27.5776835 105.095148,27.4969815 C103.552245,26.9658108 101.914902,27.4809536 101.0297,28.7921496 C100.29391,29.8817666 100.267129,31.0920148 100.477435,32.325883 C100.850686,34.5146776 102.909487,35.5320284 104.882304,34.5101786 C105.195508,34.3479311 105.48926,34.1485663 105.844469,33.9348608 C105.844469,34.0912032 105.856309,34.1944005 105.841931,34.2942235 C105.801336,34.5796328 105.885346,34.6935154 106.20447,34.6786123 C106.820165,34.6496495 107.438115,34.6634279 108.05522,34.673832 C108.262989,34.6774875 108.364477,34.6476812 108.363631,34.3979831 C108.355456,31.2680406 108.356865,28.1375358 108.36194,25.0073121" id="Fill-27" fill="#FFFFFF"></path>
            <path d="M152.735109,33.3033623 C152.145699,33.5103528 151.556826,33.5926664 151.022632,33.2113963 C150.645239,32.9419332 150.723505,32.1255003 151.134135,31.8678346 C151.740698,31.487637 152.446703,31.5267829 153.122956,31.4492955 C153.253489,31.4342806 153.256437,31.5318772 153.255901,31.6259882 C153.255097,31.8297613 153.255633,32.0335343 153.255901,32.2373074 C153.255901,32.2630471 153.252953,32.2887869 153.256437,32.3139904 C153.32425,32.7711392 153.229366,33.129887 152.735109,33.3033623 M155.630693,30.1403217 C155.630157,28.8812186 155.06219,28.1733753 153.82762,27.8653026 C152.338417,27.4934168 150.857254,27.6253331 149.373412,27.9012311 C149.117974,27.9484206 149.004059,28.0269805 149.034883,28.3069003 C149.065707,28.5841389 149.041852,28.8672763 149.041852,29.1477323 C149.041852,29.6649406 149.041316,29.6630637 149.515202,29.4834217 C150.51685,29.1045646 151.533775,28.904009 152.594122,29.2249516 C152.951413,29.333005 153.181923,29.5606409 153.257777,29.9322587 C153.287797,30.0789216 153.267159,30.1598946 153.076854,30.1719601 C152.531402,30.2062798 151.986755,30.2577593 151.443983,30.3218406 C150.76505,30.4017411 150.094694,30.5253455 149.481698,30.8519187 C148.395887,31.4302588 148.037524,32.7802554 148.689118,33.8294185 C149.189003,34.6335178 150.314215,35.0638543 151.326584,34.8579363 C152.019187,34.717172 152.628699,34.408563 153.255365,33.9192395 C153.255365,34.0860117 153.26555,34.1613541 153.253757,34.2332109 C153.198006,34.5742627 153.319426,34.6941134 153.678325,34.6718593 C154.224312,34.6380758 154.77432,34.6490689 155.321648,34.6689099 C155.57789,34.6780261 155.638198,34.5949081 155.636322,34.3482355 C155.624796,32.945955 155.631229,31.5431384 155.630693,30.1403217" id="Fill-29" fill="#FFFFFF"></path>
            <path d="M96.5345145,32.2482124 C96.529942,32.2482124 96.5259075,32.2484804 96.521335,32.2487484 C96.521335,32.2616109 96.5205281,32.2742054 96.521604,32.2870679 C96.5528045,32.7158182 96.557108,33.1105364 96.0334243,33.2962389 C95.4430362,33.5052546 94.8591033,33.605743 94.3160538,33.2386256 C93.8859716,32.9481473 93.9682762,32.1426327 94.4274072,31.8567099 C94.7813711,31.6364394 95.1869772,31.5817738 95.5915074,31.5321995 C95.6420736,31.5260362 95.6937158,31.5300558 95.744551,31.5289839 C95.9938858,31.5238925 96.3161113,31.3322947 96.4675411,31.5131737 C96.5974534,31.6688636 96.5199902,31.9965896 96.5345145,32.2482124 M98.8995636,30.0479197 C98.8952601,28.9605018 98.4068114,28.2833444 97.3583682,27.9564223 C95.9486989,27.5169533 94.5150913,27.5815338 93.0860562,27.8417316 C92.2791476,27.9883106 92.2834511,28.0116239 92.2834511,28.8455432 L92.2834511,28.9221823 C92.2834511,29.6604366 92.2823752,29.6577569 92.99891,29.4104216 C93.9287377,29.0893949 94.8695931,28.9428159 95.8392283,29.2316864 C96.1972267,29.338338 96.4363407,29.5545889 96.5151487,29.9230462 C96.547694,30.0757884 96.5229488,30.1730612 96.3110009,30.1845838 C95.7765584,30.2137924 95.2423849,30.2679222 94.7109011,30.3327706 C93.9932904,30.4201285 93.299887,30.5760864 92.6417185,30.9107796 C91.383748,31.5506894 91.3950447,33.3977991 92.1858152,34.156955 C93.0465177,34.9833712 94.0470843,35.0554548 95.1210796,34.7253171 C95.6154456,34.5731108 96.0509073,34.2909395 96.5199902,33.9431158 C96.5199902,34.1124722 96.5331697,34.2113527 96.5178384,34.3056778 C96.468348,34.6076787 96.5899223,34.691553 96.8890164,34.6781546 C97.4379832,34.6532335 97.9893707,34.657253 98.5388755,34.6768147 C98.8097278,34.6867296 98.9130121,34.6344756 98.9089776,34.3303309 C98.8909566,32.9028605 98.904943,31.4753901 98.8995636,30.0479197" id="Fill-31" fill="#FFFFFF"></path>
            <path d="M88.2832064,32.4467958 C88.0610382,33.1504797 87.3902455,33.4748048 86.5959068,33.3503109 C85.9047465,33.2421135 85.4451342,32.6989893 85.3813513,31.8985956 C85.3639316,31.684338 85.3786713,31.467676 85.3786713,31.2523498 C85.3574997,30.7939134 85.3767954,30.33895 85.579936,29.9147093 C85.8444475,29.3617003 86.290124,29.1308791 86.8987417,29.1319477 C87.5049475,29.1330164 87.9801035,29.3475411 88.2119196,29.9144421 C88.5506659,30.7418183 88.5485219,31.606329 88.2832064,32.4467958 M90.740725,30.0774061 C90.4671016,29.0234832 89.7644175,28.3173949 88.7468386,27.9428449 C87.8739773,27.6214585 86.9735125,27.5765766 86.0486601,27.6989332 C84.0515577,27.9631486 82.908021,29.2401452 82.9093609,31.3971473 C82.8956932,32.6330022 83.3997927,33.7635983 84.6671433,34.3804571 C86.0915393,35.0739892 87.597942,35.0801337 89.0400257,34.4282777 C90.7034736,33.6762389 91.2137371,31.8996642 90.740725,30.0774061" id="Fill-33" fill="#FFFFFF"></path>
            <path d="M168.988068,32.5473141 C168.753728,33.2132746 168.10728,33.507349 167.333205,33.3895583 C166.64064,33.2841101 166.184024,32.7464047 166.112703,31.933407 C166.093666,31.7182175 166.110022,31.5003448 166.110022,31.3704799 C166.073289,30.7936003 166.120479,30.3157294 166.347044,29.8711296 C166.622675,29.3307411 167.082241,29.1434565 167.668092,29.1498961 C168.245096,29.1563356 168.708415,29.3666954 168.93203,29.8979613 C169.295607,30.7632806 169.297216,31.6691156 168.988068,32.5473141 M169.119717,27.8316592 C168.300866,27.6094935 167.46405,27.580247 166.627234,27.7267476 C165.31691,27.9564262 164.319219,28.601458 163.842494,29.8995712 C163.623437,30.4952328 163.610567,31.1190677 163.660438,31.7437075 C163.743556,32.7896036 164.182208,33.642312 165.071576,34.2261678 C166.113775,34.9103738 167.269123,35.0002597 168.468711,34.8419532 C170.48447,34.576052 171.629093,33.295916 171.636332,31.2902533 C171.642499,29.52849 170.736507,28.2708926 169.119717,27.8316592" id="Fill-35" fill="#FFFFFF"></path>
            <path d="M64.3938825,32.1531688 C64.2693537,32.8939481 63.7615976,33.3674027 63.0706637,33.4028313 C62.1938739,33.4476538 61.6837075,33.1183291 61.4748205,32.3193074 C61.2779847,31.566987 61.2793237,30.8060778 61.5433783,30.0661037 C61.7806525,29.4012811 62.189589,29.1489867 62.9539012,29.1538179 C63.6386756,29.1581123 64.0596633,29.446372 64.2872965,30.079792 C64.4308394,30.4794371 64.4771695,30.8957228 64.4651183,31.3552207 C64.4921665,31.6013419 64.4402125,31.8780606 64.3938825,32.1531688 M64.8124599,27.9707182 C64.0824266,27.6797744 63.3095447,27.5976446 62.5321101,27.6521294 C60.5380427,27.7922333 59.028968,28.7665191 58.9156869,31.0795757 C58.8530208,32.3579567 59.2300887,33.477446 60.338261,34.233524 C61.1071258,34.7579743 61.9900751,34.8964678 62.5629076,34.9090825 C65.164622,34.9125717 66.6736966,33.824485 66.8836549,31.7433246 C67.0387133,30.207818 66.5014988,28.6438611 64.8124599,27.9707182" id="Fill-37" fill="#FFFFFF"></path>
            <path d="M136.300125,30.1223126 C136.341303,29.9437838 136.394918,29.7749929 136.498831,29.625678 C136.942119,28.9897368 137.604564,28.9575475 138.28746,29.035992 C138.820843,29.0971246 139.166022,29.401976 139.301164,29.919439 C139.401485,30.3024643 139.357543,30.357646 138.950458,30.3584575 C138.570181,30.3589985 138.189627,30.358728 137.80935,30.358728 C137.376564,30.3589985 136.943224,30.352236 136.510714,30.3622444 C136.320023,30.3665724 136.254248,30.3205877 136.300125,30.1223126 M136.658846,31.6360202 C137.44676,31.6627995 138.236333,31.6441352 139.0248,31.6441352 C139.590241,31.6441352 140.155683,31.6511681 140.720847,31.6417007 C141.058841,31.6360202 141.511526,31.7872287 141.704704,31.5827321 C141.912254,31.3625466 141.773519,30.9216346 141.763846,30.578643 C141.724602,29.2085698 140.864557,28.1368561 139.541878,27.8141518 C138.466268,27.5514981 137.387342,27.5834169 136.326103,27.8863749 C134.833183,28.3126799 133.865908,29.5907837 133.820308,31.156427 C133.771945,32.8251301 134.548805,34.0107235 136.122699,34.5303504 C137.897234,35.1159789 139.67398,34.9834348 141.429169,34.4002408 C141.566522,34.3545266 141.633126,34.2823036 141.627322,34.1235212 C141.61378,33.7380614 141.624006,33.35179 141.6229,32.9657891 C141.621795,32.5143277 141.587526,32.4986388 141.16911,32.7215293 C140.02358,33.3331256 138.820014,33.5614261 137.541277,33.208967 C136.930788,33.0409876 136.526467,32.6501178 136.349594,32.0474479 C136.271383,31.7820892 136.288794,31.6233068 136.658846,31.6360202" id="Fill-39" fill="#FFFFFF"></path>
        </g>
    </g>
</svg>